<!--
Developer: Tejas Kamble
Email: tejasksocials@gmail.com
Website: https://tejas-personal-portfolio-dev.vercel.app/
LinkedIn: https://www.linkedin.com/in/tejas-kamble-5342443b1?utm_source=share_via&utm_content=profile&utm_medium=member_android
Instagram: https://www.instagram.com/tejasworkspace_u1?igsh=MXRzcG55N3psbWxzbw==
GitHub: https://github.com/tejasworkspacews1-ui
-->
<svg xmlns="http://www.w3.org/2000/svg" width="1200" height="720" viewBox="0 0 1200 720">
  <defs>
    <linearGradient id="bg" x1="0%" y1="0%" x2="100%" y2="100%">
      <stop offset="0%" stop-color="#5b21b6"/>
      <stop offset="100%" stop-color="#1d4ed8"/>
    </linearGradient>
    <filter id="blur"><feGaussianBlur stdDeviation="24"/></filter>
  </defs>
  <rect width="1200" height="720" fill="url(#bg)"/>
  <circle cx="170" cy="120" r="90" fill="#22c55e" opacity="0.20" filter="url(#blur)"/>
  <circle cx="1020" cy="145" r="120" fill="#ffffff" opacity="0.12" filter="url(#blur)"/>
  <circle cx="940" cy="560" r="150" fill="#22c55e" opacity="0.15" filter="url(#blur)"/>
  <g opacity="0.92">
    <rect x="70" y="100" rx="28" ry="28" width="390" height="430" fill="rgba(255,255,255,0.18)" stroke="rgba(255,255,255,0.28)" stroke-width="2"/>
    <rect x="120" y="160" rx="20" ry="20" width="290" height="56" fill="white" opacity="0.82"/>
    <rect x="120" y="240" rx="20" ry="20" width="290" height="56" fill="white" opacity="0.55"/>
    <rect x="120" y="320" rx="20" ry="20" width="290" height="56" fill="white" opacity="0.4"/>
    <rect x="120" y="400" rx="20" ry="20" width="290" height="56" fill="white" opacity="0.82"/>
  </g>
  <g stroke="white" stroke-width="8" fill="none" stroke-linecap="round" stroke-linejoin="round" opacity="0.95">
    <path d="M560 180h150l50 50h180"/>
    <path d="M560 300h120l60 70h200"/>
    <path d="M560 420h160l35 -60h200"/>
    <circle cx="560" cy="180" r="16" fill="white"/>
    <circle cx="560" cy="300" r="16" fill="white"/>
    <circle cx="560" cy="420" r="16" fill="white"/>
  </g>
  <g transform="translate(760 255)">
    <rect x="0" y="0" width="260" height="200" rx="26" fill="rgba(255,255,255,0.16)" stroke="rgba(255,255,255,0.34)" stroke-width="2"/>
    <circle cx="62" cy="60" r="20" fill="white"/>
    <circle cx="130" cy="60" r="20" fill="white"/>
    <circle cx="198" cy="60" r="20" fill="white"/>
    <rect x="48" y="120" width="165" height="16" rx="8" fill="white" opacity="0.8"/>
    <rect x="64" y="152" width="132" height="14" rx="7" fill="white" opacity="0.45"/>
  </g>
  <text x="78" y="620" font-family="Inter, Arial, sans-serif" font-size="64" font-weight="800" fill="white">Sequential Circuits</text>
  <text x="78" y="668" font-family="Inter, Arial, sans-serif" font-size="28" fill="white" opacity="0.92">Explore memory, timing, and flip-flop behavior step by step.</text>
</svg>